<svg width="24" height="24" viewBox="0 0 24 24" fill="none" xmlns="http://www.w3.org/2000/svg"><g clip-path="url(#clip0_8910_33228)"><path d="M16.6035 15.2177C16.1441 15.2177 15.7704 14.8526 15.7704 14.4041C15.7704 13.9556 16.1441 13.5908 16.6035 13.5908C17.0629 13.5908 17.4366 13.9556 17.4366 14.4041C17.4366 14.8527 17.0629 15.2177 16.6035 15.2177ZM7.39489 15.2177C6.93551 15.2177 6.56183 14.8526 6.56183 14.4041C6.56183 13.9556 6.93543 13.5908 7.39489 13.5908C7.85428 13.5908 8.22796 13.9556 8.22796 14.4041C8.22796 14.8527 7.85435 15.2177 7.39489 15.2177ZM16.9023 10.3184L18.5673 7.50318C18.6132 7.42548 18.6256 7.33321 18.6018 7.24661C18.578 7.16001 18.52 7.08615 18.4405 7.04124C18.361 6.99651 18.2664 6.98443 18.1777 7.00763C18.089 7.03084 18.0134 7.08744 17.9674 7.16502L16.2815 10.0158C14.9922 9.44151 13.5442 9.12152 11.9992 9.12152C10.4541 9.12152 9.00621 9.44151 7.71696 10.0158L6.031 7.16502C5.98498 7.08744 5.90933 7.03084 5.82062 7.00763C5.73192 6.98443 5.63741 6.99651 5.55782 7.04124C5.47828 7.08611 5.42025 7.15997 5.39648 7.24659C5.3727 7.3332 5.38512 7.4255 5.43102 7.50318L7.09609 10.3184C4.23693 11.8365 2.28144 14.6622 1.99536 18.0007H22.003C21.7167 14.6623 19.7612 11.8365 16.9023 10.3183" fill="white"></path></g><defs><clipPath id="clip0_8910_33228"><rect width="20" height="11" fill="white" transform="translate(2 7)"></rect></clipPath></defs></svg>