<svg width="24" height="24" viewBox="0 0 24 24" fill="none" xmlns="http://www.w3.org/2000/svg"><g clip-path="url(#clip0_14579_20843)"><path d="M23.9401 10.8999C23.9101 10.3899 23.8201 9.86994 23.7101 9.36994C23.4101 8.00994 22.8601 6.70994 22.1101 5.53994C20.4301 2.87994 17.6501 0.929936 14.5701 0.279936C14.1201 0.169936 13.6601 0.0999356 13.2001 0.0599356C12.5801 -6.43544e-05 11.9701 -0.0200644 11.3601 0.0199356C10.8601 0.0399356 10.3601 0.0999356 9.87007 0.189936C9.42007 0.249936 8.98007 0.379936 8.55007 0.489936C8.14007 0.619936 7.74007 0.759936 7.35007 0.929936C6.98007 1.08994 6.61007 1.25994 6.25007 1.45994C5.90007 1.64994 5.56007 1.85994 5.23007 2.08994C5.15007 2.14994 5.06007 2.20994 4.98007 2.24994C4.16007 1.62994 3.33007 1.01994 2.47007 0.459936C2.23007 0.309936 2.00007 0.149936 1.74007 0.0599356C1.29007 -0.0900644 0.780069 0.0299357 0.440069 0.339936C0.110069 0.629936 -0.0299309 1.07994 6.90697e-05 1.50994C6.90697e-05 2.07994 6.90697e-05 2.64994 6.90697e-05 3.22994C6.90697e-05 3.80994 6.90697e-05 4.38994 6.90697e-05 4.95994C6.90697e-05 5.53994 6.90697e-05 6.10994 6.90697e-05 6.68994C6.90697e-05 7.35994 6.90697e-05 8.02994 6.90697e-05 8.69994C6.90697e-05 9.34994 6.90697e-05 10.0099 6.90697e-05 10.6599C6.90697e-05 11.4799 -0.0399309 12.2999 0.0500691 13.1099C0.110069 13.9499 0.290069 14.7799 0.540069 15.5799C1.68007 19.2999 4.75007 22.3699 8.48007 23.4599C9.26007 23.6999 10.0601 23.8799 10.8601 23.9399C11.7501 24.0299 12.6601 24.0199 13.5501 23.8899C14.0301 23.8499 14.5001 23.7399 14.9601 23.6299C15.5001 23.4899 16.0301 23.3099 16.5401 23.0999C17.0201 22.8899 17.5001 22.6699 17.9501 22.3999C18.3601 22.1699 18.7401 21.9199 19.1101 21.6399C19.5401 21.3199 19.9601 20.9699 20.3401 20.5999C20.6401 20.3099 20.9201 19.9999 21.1801 19.6899C21.4401 19.3799 21.6801 19.0599 21.9101 18.7199C22.1201 18.4099 22.3101 18.0899 22.4901 17.7699C22.6801 17.4099 22.8601 17.0399 23.0301 16.6599C23.2101 16.2099 23.3801 15.7599 23.5101 15.2899C23.6201 14.9099 23.7301 14.5199 23.7701 14.1299C23.8701 13.7099 23.9201 13.2699 23.9301 12.8499C23.9901 12.2099 23.9801 11.5499 23.9101 10.9099L23.9401 10.8999ZM19.5401 9.32994C19.3901 9.71994 19.1401 10.0499 18.8301 10.3299C18.5601 10.5899 18.3001 10.8599 18.0301 11.1299C17.7501 11.4099 17.4601 11.6899 17.1801 11.9799C16.9101 12.2499 16.6401 12.5199 16.3701 12.7899C16.0701 13.0899 15.7801 13.3799 15.4801 13.6799C15.1401 14.0199 14.8101 14.3499 14.4701 14.6899C14.1501 15.0099 13.8301 15.3299 13.5201 15.6399C13.2001 15.9599 12.8801 16.2799 12.5601 16.5999C12.2601 16.8799 12.0001 17.1999 11.6601 17.4399C11.2501 17.6999 10.7601 17.8299 10.2701 17.8199C9.70007 17.7799 9.15007 17.5599 8.74007 17.1599C7.49007 15.9099 6.23007 14.6499 4.97007 13.3899C4.66007 13.0899 4.46007 12.6899 4.35007 12.2799C4.23007 11.7099 4.30007 11.0899 4.60007 10.5799C4.83007 10.1799 5.17007 9.86994 5.56007 9.63994C5.99007 9.43994 6.47007 9.34994 6.95007 9.40994C7.46007 9.48994 7.96007 9.71994 8.32007 10.0999C9.00007 10.7799 9.68007 11.4699 10.3701 12.1399C10.5801 11.9399 10.7801 11.7399 10.9701 11.5299C11.2601 11.2499 11.5401 10.9699 11.8201 10.6799C12.0901 10.4299 12.3601 10.1599 12.6101 9.88994C12.7901 9.71994 12.9601 9.53994 13.1401 9.36994C13.4301 9.08994 13.7101 8.79994 13.9901 8.51994C14.2601 8.25994 14.5201 7.98994 14.7801 7.72994C15.0601 7.44994 15.3401 7.16994 15.6201 6.88994C15.9001 6.59994 16.2501 6.37994 16.6301 6.25994C17.1201 6.11994 17.6401 6.13994 18.1301 6.28994C18.7501 6.52994 19.2401 7.00994 19.5101 7.60994C19.7101 8.15994 19.7301 8.76994 19.5301 9.32994H19.5401Z" fill="white"></path></g><defs><clipPath id="clip0_14579_20843"><rect width="24" height="24" fill="white"></rect></clipPath></defs></svg>