<svg xmlns="http://www.w3.org/2000/svg" width="25" height="24" viewBox="0 0 25 24" fill="none"><path d="M21.2981 8.91429C21.0314 8.72143 20.4981 8.46429 19.4314 8.20714C19.0981 8.14286 18.7647 8.07857 18.3647 8.01429C17.8314 7.95 17.2981 7.88571 16.5647 7.82143H16.4981C16.3647 7.5 16.2314 7.17857 16.0981 6.85714C16.0314 6.66429 15.9647 6.47143 15.8314 6.27857V6.21429C15.5647 5.50714 15.2314 4.8 14.6981 4.15714C14.0314 3.38571 13.2314 3 12.4314 3C11.6314 3 10.8314 3.38571 10.2314 4.09286C9.6314 4.73571 9.36473 5.50714 9.0314 6.21429V6.27857C8.96473 6.47143 8.8314 6.66429 8.76473 6.85714C8.6314 7.17857 8.49806 7.5 8.36473 7.82143H8.29806C7.6314 7.88571 7.0314 7.95 6.49806 8.01429C6.09806 8.07857 5.69806 8.14286 5.4314 8.20714C4.36473 8.46429 3.8314 8.72143 3.56473 8.91429C3.49806 8.97857 3.4314 9.10714 3.4314 9.23571L3.49806 9.87857C3.6314 10.8429 3.76473 11.9357 4.0314 13.0929C4.2314 13.9929 4.4314 14.8929 4.76473 15.7286C4.89806 16.05 5.0314 16.3714 5.16473 16.6929C6.2314 18.75 8.16473 20.2929 10.5647 20.8071C11.1647 20.9357 11.7647 21 12.4314 21C13.0314 21 13.6981 20.9357 14.2981 20.8071C16.6981 20.2929 18.6981 18.6857 19.7647 16.5643C19.8981 16.3071 20.0314 16.05 20.0981 15.7929C20.8314 13.8643 21.0981 11.8071 21.3647 10.1357L21.4314 9.23571C21.4314 9.10714 21.3647 8.97857 21.2981 8.91429ZM12.4314 7.62857C11.5647 7.62857 10.8314 7.62857 10.1647 7.69286C10.2314 7.62857 10.2314 7.5 10.2981 7.43571C10.3647 7.24286 10.4981 7.05 10.5647 6.85714C10.7647 6.40714 10.9647 5.95714 11.1647 5.57143C11.2981 5.37857 11.3647 5.25 11.4981 5.05714C11.6981 4.86429 12.0314 4.54286 12.4981 4.54286C12.9647 4.54286 13.2981 4.86429 13.4981 5.05714C13.6314 5.18571 13.7647 5.37857 13.8314 5.57143C14.0314 5.95714 14.2314 6.40714 14.4314 6.85714C14.4981 7.05 14.5647 7.24286 14.6981 7.43571C14.7647 7.5 14.7647 7.62857 14.8314 7.69286C14.0314 7.69286 13.2981 7.62857 12.4314 7.62857Z" fill="url(#paint0_linear_9378_7553)"></path><defs><linearGradient id="paint0_linear_9378_7553" x1="12.4314" y1="3" x2="12.4314" y2="21" gradientUnits="userSpaceOnUse"><stop stop-color="#43975B"></stop><stop offset="0.0001" stop-color="#A3D442"></stop><stop offset="1" stop-color="#43965C"></stop></linearGradient></defs></svg>