<svg xmlns="http://www.w3.org/2000/svg" width="16" height="16" viewBox="0 0 16 16" fill="none"><mask id="path-1-inside-1_9451_6736" fill="white"><path d="M15.2696 8C15.673 8 16.0035 8.32772 15.9667 8.72945C15.8279 10.2449 15.2591 11.6949 14.3198 12.9051C13.2308 14.3082 11.7057 15.3091 9.98506 15.7498C8.2644 16.1905 6.446 16.0461 4.81648 15.3393C3.18697 14.6325 1.83902 13.4034 0.985116 11.846C0.131213 10.2885 -0.180082 8.4911 0.100302 6.73716C0.380685 4.98322 1.2368 3.37247 2.5337 2.15881C3.83059 0.945145 5.49451 0.197599 7.26317 0.0340043C8.78853 -0.107086 10.317 0.193086 11.6692 0.891075C12.0277 1.0761 12.1263 1.53097 11.9094 1.87107C11.6924 2.21118 11.2422 2.30692 10.8801 2.12924C9.80452 1.60158 8.59995 1.37744 7.39772 1.48864C5.95203 1.62236 4.59195 2.2334 3.53188 3.22544C2.4718 4.21748 1.77202 5.5341 1.54283 6.96776C1.31365 8.40142 1.5681 9.87058 2.26607 11.1437C2.96405 12.4167 4.06585 13.4213 5.39781 13.9991C6.72977 14.5768 8.21612 14.6949 9.62258 14.3347C11.029 13.9744 12.2756 13.1563 13.1658 12.0094C13.9061 11.0556 14.3649 9.91949 14.4984 8.72894C14.5434 8.32805 14.8662 8 15.2696 8Z"></path></mask><path d="M15.2696 8C15.673 8 16.0035 8.32772 15.9667 8.72945C15.8279 10.2449 15.2591 11.6949 14.3198 12.9051C13.2308 14.3082 11.7057 15.3091 9.98506 15.7498C8.2644 16.1905 6.446 16.0461 4.81648 15.3393C3.18697 14.6325 1.83902 13.4034 0.985116 11.846C0.131213 10.2885 -0.180082 8.4911 0.100302 6.73716C0.380685 4.98322 1.2368 3.37247 2.5337 2.15881C3.83059 0.945145 5.49451 0.197599 7.26317 0.0340043C8.78853 -0.107086 10.317 0.193086 11.6692 0.891075C12.0277 1.0761 12.1263 1.53097 11.9094 1.87107C11.6924 2.21118 11.2422 2.30692 10.8801 2.12924C9.80452 1.60158 8.59995 1.37744 7.39772 1.48864C5.95203 1.62236 4.59195 2.2334 3.53188 3.22544C2.4718 4.21748 1.77202 5.5341 1.54283 6.96776C1.31365 8.40142 1.5681 9.87058 2.26607 11.1437C2.96405 12.4167 4.06585 13.4213 5.39781 13.9991C6.72977 14.5768 8.21612 14.6949 9.62258 14.3347C11.029 13.9744 12.2756 13.1563 13.1658 12.0094C13.9061 11.0556 14.3649 9.91949 14.4984 8.72894C14.5434 8.32805 14.8662 8 15.2696 8Z" stroke="#007816" stroke-width="3" mask="url(#path-1-inside-1_9451_6736)"></path><path d="M5.5 7.5L7.78787 9.78787C7.90503 9.90503 8.09497 9.90503 8.21213 9.78787L14.5 3.5" stroke="#007816" stroke-width="1.5" stroke-linecap="round"></path></svg>