<svg xmlns="http://www.w3.org/2000/svg" width="20" height="20" viewBox="0 0 20 20" fill="none" class="text-mango-focus w-24 h-24">
    <path fill="#FFA500" fill-rule="evenodd" d="M6.563 8.594c-.95 0-1.72.77-1.72 1.719v2.5c0 .949.77 1.718 1.72 1.718h6.875c.949 0 1.718-.77 1.718-1.719v-2.5c0-.949-.77-1.718-1.719-1.718h-1.026a.469.469 0 1 1 0-.938h1.027a2.656 2.656 0 0 1 2.656 2.657v2.5a2.656 2.656 0 0 1-2.657 2.656H6.564a2.656 2.656 0 0 1-2.657-2.656v-2.5a2.656 2.656 0 0 1 2.657-2.657h1.026a.469.469 0 0 1 0 .938z" clip-rule="evenodd" style="fill:#FFA500;fill-opacity:1"></path>
    <path fill="#FFA500" fill-rule="evenodd" d="M10 5.781c.259 0 .469.21.469.469v5a.469.469 0 1 1-.938 0v-5c0-.259.21-.469.469-.469" clip-rule="evenodd" style="fill:#FFA500;fill-opacity:1"></path>
    <path fill="#FFA500" fill-rule="evenodd" d="M8.419 10.294a.469.469 0 0 1 .662 0l.919.918.918-.918a.469.469 0 0 1 .664.662l-1.162 1.162a.594.594 0 0 1-.84 0L8.42 10.956a.469.469 0 0 1 0-.662" clip-rule="evenodd" style="fill:#FFA500;fill-opacity:1"></path>
</svg>