<svg width="24" height="24" viewBox="0 0 24 24" fill="none" xmlns="http://www.w3.org/2000/svg"><g clip-path="url(#clip0_14579_20849)"><path d="M12 2.16C15.2 2.16 15.58 2.17 16.85 2.23C20.1 2.38 21.62 3.92 21.77 7.15C21.83 8.42 21.84 8.8 21.84 12C21.84 15.2 21.83 15.58 21.77 16.85C21.62 20.08 20.11 21.62 16.85 21.77C15.58 21.83 15.21 21.84 12 21.84C8.79 21.84 8.42 21.83 7.15 21.77C3.89 21.62 2.38 20.07 2.23 16.85C2.17 15.58 2.16 15.21 2.16 12C2.16 8.79 2.17 8.42 2.23 7.15C2.38 3.92 3.89 2.38 7.15 2.23C8.42 2.17 8.79 2.16 12 2.16ZM12 0C8.74 0 8.33 0.01 7.05 0.07C2.7 0.27 0.27 2.69 0.07 7.05C0.01 8.33 0 8.74 0 12C0 15.26 0.01 15.67 0.07 16.95C0.27 21.31 2.69 23.73 7.05 23.93C8.33 23.99 8.74 24 12 24C15.26 24 15.67 23.99 16.95 23.93C21.3 23.73 23.73 21.31 23.93 16.95C23.99 15.67 24 15.26 24 12C24 8.74 23.99 8.33 23.93 7.05C23.73 2.7 21.31 0.27 16.95 0.07C15.67 0.01 15.26 0 12 0ZM12 5.84C8.6 5.84 5.84 8.6 5.84 12C5.84 15.4 8.6 18.16 12 18.16C15.4 18.16 18.16 15.4 18.16 12C18.16 8.6 15.4 5.84 12 5.84ZM12 16C9.79 16 8 14.21 8 12C8 9.79 9.79 8 12 8C14.21 8 16 9.79 16 12C16 14.21 14.21 16 12 16ZM18.41 4.15C17.61 4.15 16.97 4.79 16.97 5.59C16.97 6.39 17.62 7.03 18.41 7.03C19.2 7.03 19.85 6.39 19.85 5.59C19.85 4.79 19.21 4.15 18.41 4.15Z" fill="white"></path></g><defs><clipPath id="clip0_14579_20849"><rect width="24" height="24" fill="white"></rect></clipPath></defs></svg>