<svg xmlns="http://www.w3.org/2000/svg" width="24" height="24" viewBox="0 0 24 24" fill="none"><path fill="#fff" d="M19.95 8.5c-.126.1-2.33 1.37-2.33 4.192 0 3.265 2.805 4.42 2.89 4.449-.014.07-.447 1.582-1.48 3.122-.922 1.355-1.885 2.708-3.35 2.708-1.464 0-1.84-.869-3.531-.869-1.648 0-2.233.898-3.573.898-1.34 0-2.274-1.254-3.349-2.794-1.245-1.809-2.25-4.618-2.25-7.285 0-4.277 2.722-6.546 5.4-6.546 1.424 0 2.611.955 3.505.955.85 0 2.177-1.012 3.797-1.012.613 0 2.819.057 4.27 2.183m-5.04-3.993c.67-.812 1.143-1.938 1.143-3.065 0-.156-.012-.314-.04-.442-1.09.042-2.387.741-3.169 1.668-.613.713-1.186 1.84-1.186 2.981 0 .172.028.343.04.398.07.014.182.029.294.029.977 0 2.207-.669 2.918-1.569"></path></svg>