<svg width="24" height="24" viewBox="0 0 24 24" fill="none" xmlns="http://www.w3.org/2000/svg"><g clip-path="url(#clip0_14579_20847)"><path d="M19 0H5C2.24 0 0 2.24 0 5V19C0 21.76 2.24 24 5 24H19C21.76 24 24 21.76 24 19V5C24 2.24 21.76 0 19 0ZM8 19H5V8H8V19ZM6.5 6.73C5.53 6.73 4.75 5.94 4.75 4.97C4.75 4 5.53 3.21 6.5 3.21C7.47 3.21 8.25 4 8.25 4.97C8.25 5.94 7.47 6.73 6.5 6.73ZM20 19H17V13.4C17 10.03 13 10.29 13 13.4V19H10V8H13V9.77C14.4 7.18 20 6.99 20 12.25V19.01V19Z" fill="white"></path></g><defs><clipPath id="clip0_14579_20847"><rect width="24" height="24" fill="white"></rect></clipPath></defs></svg>