<svg xmlns="http://www.w3.org/2000/svg" width="24" height="24" viewBox="0 0 24 24" fill="none" class="shrink-0"><path d="M13.7655 19.7229L12.9169 20.2886C12.3617 20.6587 11.6384 20.6587 11.0832 20.2886L10.2347 19.7229C9.21413 19.0425 8.26324 18.263 7.3959 17.3956L6.5762 16.5759C6.16005 16.1598 5.78709 15.6937 5.47112 15.1972C3.51624 12.1252 3.93198 8.06794 6.50672 5.4932C9.54063 2.4593 14.4596 2.4593 17.4935 5.4932C20.0682 8.06794 20.4839 12.1252 18.5291 15.1972C18.2131 15.6937 17.8401 16.1598 17.424 16.5759L16.6043 17.3956C15.7369 18.263 14.7861 19.0425 13.7655 19.7229Z" stroke="#FFBE00" stroke-width="1.5"></path><path d="M9 9.99999C9 11.6568 10.3432 13 12 13C13.6568 13 15 11.6568 15 9.99999C15 8.34314 13.6568 7 12 7C10.3432 7 9 8.34314 9 9.99999Z" stroke="#FFBE00" stroke-width="1.5"></path></svg>