<svg width="25" height="24" viewBox="0 0 25 24" fill="none" xmlns="http://www.w3.org/2000/svg"><path d="M12.4314 21C17.402 21 21.4314 16.9706 21.4314 12C21.4314 7.02944 17.402 3 12.4314 3C7.46083 3 3.4314 7.02944 3.4314 12C3.4314 16.9706 7.46083 21 12.4314 21Z" fill="#4EADF8"></path><path d="M6.90747 11.005V14.5809C6.90747 15.0128 7.25904 15.3744 7.701 15.3744H7.72109C8.15301 15.3744 8.51461 15.0229 8.51461 14.5809V11.0753C8.51461 10.2015 9.22779 9.48828 10.1017 9.48828C10.9756 9.48828 11.6887 10.1914 11.6887 11.0753V14.0285C11.6887 14.4704 12.0503 14.832 12.4923 14.832H12.5124C12.9543 14.832 13.316 14.4704 13.316 14.0285V11.0753C13.316 10.2015 14.0291 9.48828 14.903 9.48828C15.7769 9.48828 16.4901 10.2015 16.4901 11.0753V14.5709C16.4901 15.0128 16.8517 15.3744 17.2936 15.3744H17.3137C17.7557 15.3744 18.1173 15.0128 18.1173 14.5709V10.9548C18.1173 10.9146 18.1173 10.8744 18.1072 10.8343C17.9867 9.1769 16.6006 7.87109 14.9131 7.87109C13.9588 7.87109 13.095 8.29297 12.5124 8.95592C11.9298 8.29297 11.066 7.87109 10.1117 7.87109C8.39408 7.87109 6.98783 9.22712 6.91752 10.9247C6.90747 10.9548 6.90747 10.9849 6.90747 11.005Z" fill="white"></path><path d="M9.97075 15.8774C10.5433 16.701 11.4071 17.0626 12.4216 17.0626C13.4362 17.0626 14.3 16.691 14.8725 15.8774C14.8725 15.8774 14.9428 15.7669 14.8926 15.6966C14.8524 15.6363 14.742 15.7568 14.742 15.7568C14.3 16.239 13.3759 16.5504 12.4216 16.5504C11.4674 16.5504 10.5533 16.239 10.1013 15.7568C10.1013 15.7568 9.98079 15.6363 9.95066 15.6966C9.89039 15.7669 9.9607 15.8774 9.97075 15.8774Z" fill="white"></path></svg>