<svg xmlns="http://www.w3.org/2000/svg" width="24" height="24" viewBox="0 0 24 24" fill="none"><g clip-path="url(#clip0_9540_3238)"><path d="M17.6641 14.8942L18.3574 13.141H20.3593L19.4092 10.4814L20.5974 7.47656L24.0007 16.5126H21.4909L20.9093 14.8942H17.6641Z" fill="white"></path><path d="M15.5223 16.5126L19.1656 7.47656L16.7502 7.47657L14.258 13.3159L12.4858 7.47659H10.6292L8.7263 13.3159L7.38434 10.655L6.16992 14.3964L7.40292 16.5126H9.77994L11.4995 11.276L13.139 16.5126H15.5223Z" fill="#9F5EFF"></path><path d="M2.29274 13.4107H3.78048C4.23114 13.4107 4.63244 13.3604 4.98438 13.2598L5.36913 12.0745L6.44444 8.76159C6.36251 8.63172 6.26897 8.50894 6.16382 8.39324C5.61171 7.78211 4.80392 7.47656 3.74043 7.47656H0V16.5126H2.29274V13.4107ZM4.26199 9.5554C4.47765 9.77244 4.58546 10.0629 4.58546 10.4268C4.58546 10.7934 4.49063 11.0842 4.30098 11.2992C4.09307 11.538 3.71024 11.6574 3.15251 11.6574H2.29274V9.22981H3.15883C3.67863 9.22981 4.04635 9.33834 4.26199 9.5554Z" fill="white"></path></g><defs><clipPath id="clip0_9540_3238"><rect width="24" height="24" fill="white"></rect></clipPath></defs></svg>