<svg width="25" height="24" viewBox="0 0 25 24" fill="none" xmlns="http://www.w3.org/2000/svg"><g clip-path="url(#clip0_9022_45749)"><path d="M16.6796 14.1707L17.1996 12.8557H18.701L17.9884 10.861L18.8796 8.60742L21.432 15.3845H19.5497L19.1135 14.1707H16.6796Z" fill="#0F151B"></path><path d="M15.0731 15.3845L17.8056 8.60742L15.994 8.60743L14.1249 12.9869L12.7957 8.60744H11.4033L9.97612 12.9869L8.96965 10.9913L8.05884 13.7973L8.98359 15.3845H10.7664L12.056 11.457L13.2856 15.3845H15.0731Z" fill="#5216C0"></path><path d="M5.15107 13.058H6.26688C6.60488 13.058 6.90585 13.0203 7.1698 12.9448L7.45836 12.0558L8.26485 9.57119C8.2034 9.47379 8.13324 9.3817 8.05438 9.29493C7.6403 8.83659 7.03446 8.60742 6.23684 8.60742H3.43152V15.3845H5.15107V13.058ZM6.62801 10.1665C6.78975 10.3293 6.87062 10.5472 6.87062 10.8201C6.87062 11.0951 6.79949 11.3132 6.65725 11.4744C6.50132 11.6535 6.2142 11.7431 5.7959 11.7431H5.15107V9.92236H5.80064C6.19049 9.92236 6.46628 10.0038 6.62801 10.1665Z" fill="#0F151B"></path></g><defs><clipPath id="clip0_9022_45749"><rect width="18" height="18" fill="white" transform="translate(3.43152 3)"></rect></clipPath></defs></svg>