<svg xmlns="http://www.w3.org/2000/svg" width="40" height="40" viewBox="0 0 40 40" fill="none"><path fill="#FFBD01" d="M7.516 6.908 20.333 2.2a1.93 1.93 0 0 1 1.333 0l13.292 4.717a1.97 1.97 0 0 1 1.308 1.858v6.492c0 8.258-5.025 17.958-14.383 20.116a1.776 1.776 0 0 1-.783 0c-9.509-2.15-14.875-11.85-14.875-20.116V8.758c0-.825.516-1.566 1.291-1.85"></path><path fill="#051061" d="M19.042 24.675c-.267 0-.533-.1-.733-.308l-5.35-5.35a1.041 1.041 0 0 1 0-1.475 1.041 1.041 0 0 1 1.475 0l4.616 4.616 9.034-9.033a1.041 1.041 0 0 1 1.475 0 1.041 1.041 0 0 1 0 1.475l-9.775 9.775c-.2.2-.467.308-.734.308z"></path></svg>