<svg width="25" height="25" viewBox="0 0 25 25" fill="none" xmlns="http://www.w3.org/2000/svg"><mask id="mask0_1194_19188" style="mask-type:luminance" maskUnits="userSpaceOnUse" x="0" y="0" width="25" height="25"><path d="M24.5 0.5H0.5V24.5H24.5V0.5Z" fill="white"></path></mask><g mask="url(#mask0_1194_19188)"><path d="M12.0885 6.22299C12.311 4.37597 13.9849 3.06024 15.8263 3.28347L16.149 3.32242C16.2046 3.32938 16.2449 3.38014 16.238 3.43577L16.1991 3.75915C15.9765 5.60614 14.3027 6.92187 12.4612 6.69864L12.1385 6.65969C12.0829 6.65273 12.0433 6.60197 12.0495 6.54634L12.0885 6.22299Z" fill="#0047FF"></path><path fill-rule="evenodd" clip-rule="evenodd" d="M10.21 7.7793C8.13001 7.7793 6.44434 9.47053 6.44434 11.5561V16.1493C6.44434 18.2348 8.13001 19.926 10.21 19.926H14.7899C16.8699 19.926 18.5556 18.2355 18.5556 16.1493V11.5561C18.5556 9.47053 16.8699 7.7793 14.7899 7.7793H10.21ZM10.4137 10.433C9.68285 10.433 9.09037 11.0269 9.09037 11.7599V15.9448C9.09037 16.6778 9.68285 17.2717 10.4137 17.2717H14.5869C15.3177 17.2717 15.9102 16.6778 15.9102 15.9448V11.7599C15.9102 11.0269 15.3177 10.433 14.5869 10.433H10.4137Z" fill="#0047FF"></path></g></svg>