<svg width="24" height="24" viewBox="0 0 24 24" fill="none" xmlns="http://www.w3.org/2000/svg"><g clip-path="url(#clip0_14579_20845)"><path fill-rule="evenodd" clip-rule="evenodd" d="M18.3803 21.7804C18.7003 22.0104 19.1203 22.0604 19.4903 21.9304C19.8603 21.7904 20.1303 21.4704 20.2103 21.0904C21.0803 17.0104 23.1903 6.67038 23.9803 2.95038C24.0403 2.67038 23.9403 2.38038 23.7203 2.19038C23.5003 2.00038 23.2003 1.95038 22.9203 2.05038C18.7303 3.60038 5.82033 8.45038 0.540327 10.4004C0.210327 10.5204 -0.00967267 10.8504 0.00032733 11.2004C0.0103273 11.5504 0.250327 11.8604 0.590327 11.9604C2.96033 12.6704 6.06033 13.6504 6.06033 13.6504C6.06033 13.6504 7.51033 18.0404 8.27033 20.2604C8.37033 20.5404 8.58033 20.7604 8.87033 20.8404C9.16033 20.9204 9.47033 20.8404 9.68033 20.6304C10.9003 19.4804 12.7803 17.7104 12.7803 17.7104C12.7803 17.7104 16.3503 20.3304 18.3803 21.7704V21.7804ZM7.37033 13.1004L9.05033 18.6404L9.42033 15.1304C9.42033 15.1304 15.9103 9.28038 19.6103 5.95038C19.7203 5.85038 19.7303 5.69038 19.6403 5.57038C19.5503 5.46038 19.3903 5.43038 19.2603 5.51038C14.9703 8.25038 7.37033 13.1104 7.37033 13.1104V13.1004Z" fill="white"></path></g><defs><clipPath id="clip0_14579_20845"><rect width="24" height="24" fill="white"></rect></clipPath></defs></svg>