<svg xmlns="http://www.w3.org/2000/svg" width="40" height="40" viewBox="0 0 40 40" fill="none"><path fill="#FFBD01" d="M37.758 18.75c0 1.683-2.092 3.008-2.584 4.525-.491 1.517.384 3.867-.566 5.175-.95 1.308-3.433 1.175-4.75 2.142-1.317.966-1.934 3.35-3.5 3.858-1.567.508-3.425-1.067-5.1-1.067-1.675 0-3.584 1.559-5.1 1.067-1.517-.492-2.192-2.908-3.5-3.858-1.308-.95-3.792-.817-4.75-2.142-.959-1.325-.059-3.608-.567-5.175-.508-1.567-2.583-2.842-2.583-4.525 0-1.683 2.091-3.008 2.583-4.525.492-1.517-.383-3.867.567-5.175.95-1.308 3.433-1.175 4.75-2.142 1.317-.966 1.933-3.35 3.5-3.858 1.566-.508 3.425 1.067 5.1 1.067 1.675 0 3.583-1.559 5.1-1.067 1.517.492 2.191 2.908 3.5 3.858 1.308.95 3.792.817 4.75 2.142.958 1.325.058 3.608.567 5.175.508 1.567 2.583 2.842 2.583 4.525"></path><path fill="#051061" d="M14.641 24.842c-.95 0-1.791-.234-2.533-.709s-1.333-1.166-1.767-2.075c-.433-.908-.65-2.008-.65-3.308 0-1.3.217-2.4.65-3.308.434-.909 1.025-1.6 1.767-2.075.742-.475 1.592-.709 2.533-.709.942 0 1.775.234 2.525.709.742.475 1.334 1.166 1.767 2.075.433.908.65 2.008.65 3.308 0 1.3-.217 2.4-.65 3.308-.433.909-1.025 1.6-1.767 2.075-.741.475-1.583.709-2.525.709m0-1.909c.542 0 1.017-.15 1.425-.45.409-.3.725-.758.959-1.375.233-.616.35-1.408.35-2.35 0-.941-.117-1.733-.35-2.35-.234-.616-.55-1.083-.959-1.375-.408-.3-.883-.45-1.425-.45-.541 0-1.016.15-1.433.45-.408.3-.733.759-.975 1.375-.242.617-.358 1.409-.358 2.35 0 .942.116 1.734.358 2.35.233.617.558 1.084.975 1.375.408.3.892.45 1.433.45M22.149 24.6c-.267 0-.533-.1-.733-.308a1.041 1.041 0 0 1 0-1.475l9.65-9.65a1.041 1.041 0 0 1 1.475 0 1.041 1.041 0 0 1 0 1.475l-9.65 9.65c-.2.2-.467.308-.734.308zM30.932 24.192a1.5 1.5 0 1 0 0-3 1.5 1.5 0 0 0 0 3"></path><path fill="#051061" d="M30.932 24.192a1.5 1.5 0 1 0 0-3 1.5 1.5 0 0 0 0 3"></path><path fill="#051061" d="M30.932 24.192a1.5 1.5 0 1 0 0-3 1.5 1.5 0 0 0 0 3M23.023 16.283a1.5 1.5 0 1 0 0-3 1.5 1.5 0 0 0 0 3"></path><path fill="#051061" d="M23.023 16.283a1.5 1.5 0 1 0 0-3 1.5 1.5 0 0 0 0 3"></path><path fill="#051061" d="M23.023 16.283a1.5 1.5 0 1 0 0-3 1.5 1.5 0 0 0 0 3"></path></svg>