<?xml version="1.0" encoding="UTF-8"?> <svg xmlns="http://www.w3.org/2000/svg" id="Layer_1" data-name="Layer 1" viewBox="0 0 24 24"><defs><style> .cls-1, .cls-2 { fill: none; } .cls-3 { fill: #07105d; } .cls-2 { stroke: #07105d; stroke-linecap: round; stroke-linejoin: round; stroke-width: 1.5px; } </style></defs><g><line class="cls-2" x1="3.75" y1="8.75" x2="3.75" y2="2.75"></line><polyline class="cls-2" points="1.75 4.75 3.75 2.75 5.75 4.74"></polyline><path class="cls-2" d="M10,3.25c.94-.32,1.95-.5,3-.5,5.11,0,9.25,4.14,9.25,9.25s-4.14,9.25-9.25,9.25S3.75,17.11,3.75,12"></path><path class="cls-3" d="M18.78,14.34c-.43,0-.78-.35-.78-.78v-3.16c0-1.11-.9-2-2-2-.86,0-1.59,.54-1.87,1.29-.29-.75-1.02-1.29-1.87-1.29s-1.59,.54-1.87,1.29c-.29-.75-1.02-1.29-1.87-1.29h-.51v5.2c0,1.11,.9,2,2,2,.86,0,1.59-.54,1.87-1.29,.29,.75,1.02,1.29,1.87,1.29s1.59-.54,1.87-1.29c.29,.75,1.02,1.29,1.87,1.29,1.01,0,1.84-.74,1.98-1.71-.13,.26-.39,.44-.7,.44Zm-7.49,0c-.43,0-.78-.35-.78-.78v-3.16c0-.18-.02-.36-.07-.53,.14-.13,.33-.21,.53-.21,.43,0,.78,.35,.78,.78v3.16c0,.18,.02,.36,.07,.53-.14,.13-.33,.21-.53,.21Zm3.72,0c-.45,0-.81-.35-.81-.78v-3.16c0-.18-.03-.36-.07-.53,.14-.13,.34-.21,.55-.21,.45,0,.81,.35,.81,.78v3.16c0,.18,.03,.36,.07,.53-.14,.13-.34,.21-.55,.21Z"></path></g><rect class="cls-1" x="0" y="0" width="24" height="24"></rect></svg> 