<?xml version="1.0" encoding="UTF-8"?> <svg xmlns="http://www.w3.org/2000/svg" id="Layer_1" data-name="Layer 1" viewBox="0 0 24 24"><defs><style> .cls-1, .cls-2 { fill: none; } .cls-2 { stroke: #051061; stroke-linecap: round; stroke-linejoin: round; stroke-width: 1.5px; } </style></defs><rect class="cls-1" x="0" y="0" width="24" height="24"></rect><rect class="cls-1" x="0" y="0" width="24" height="24"></rect><circle class="cls-2" cx="12" cy="9" r="3"></circle><rect class="cls-1" x="0" y="0" width="24" height="24"></rect><path class="cls-2" d="M14.92,21.04c-.92,.3-1.9,.46-2.92,.46-5.25,0-9.5-4.25-9.5-9.5S6.75,2.5,12,2.5s9.5,4.25,9.5,9.5c0,1.02-.16,2-.46,2.92"></path><path class="cls-2" d="M12.74,15.04c-.24-.03-.49-.04-.74-.04-2.82,0-5.22,1.77-6.15,4.27"></path><g><circle class="cls-2" cx="16.92" cy="16.92" r="4.58"></circle><g><line class="cls-2" x1="18.75" y1="15.66" x2="16.24" y2="18.18"></line><line class="cls-2" x1="15.09" y1="17.03" x2="16.24" y2="18.18"></line></g></g></svg> 