<?xml version="1.0" encoding="UTF-8"?> <svg xmlns="http://www.w3.org/2000/svg" id="Layer_1" data-name="Layer 1" viewBox="0 0 24 24"><defs><style> .cls-1, .cls-2 { fill: none; } .cls-2 { stroke: #051061; stroke-linecap: round; stroke-linejoin: round; stroke-width: 1.5px; } </style></defs><rect class="cls-1" x="0" width="24" height="24"></rect><rect class="cls-1" x="0" width="24" height="24"></rect><rect class="cls-1" x="0" width="24" height="24"></rect><rect class="cls-1" x="0" width="24" height="24"></rect><rect class="cls-1" x="0" width="24" height="24"></rect><rect class="cls-1" x="0" width="24" height="24"></rect><path class="cls-2" d="M7.26,18.93c.74-.79,1.86-.73,2.51,.14l.91,1.22c.73,.96,1.91,.96,2.64,0l.91-1.22c.65-.86,1.77-.93,2.51-.14,1.6,1.71,2.91,1.14,2.91-1.25V7.54c0-3.63-.84-4.54-4.24-4.54h-6.8c-3.4,0-4.25,.91-4.25,4.54v10.13c0,2.4,1.31,2.96,2.91,1.26Z"></path><path class="cls-2" d="M8.4,7.5h7.2"></path><path class="cls-2" d="M9.3,11.1h5.4"></path></svg> 