<?xml version="1.0" encoding="UTF-8"?> <svg xmlns="http://www.w3.org/2000/svg" id="Layer_1" data-name="Layer 1" viewBox="0 0 24 24"><defs><style> .cls-1, .cls-2 { fill: none; } .cls-3 { fill: #051061; } .cls-2 { stroke: #051061; stroke-linecap: round; stroke-linejoin: round; stroke-width: 1.5px; } </style></defs><path class="cls-3" d="M17.78,14.34c-.43,0-.78-.35-.78-.78v-3.16c0-1.11-.9-2-2-2-.86,0-1.59,.54-1.87,1.29-.29-.75-1.02-1.29-1.87-1.29s-1.59,.54-1.87,1.29c-.29-.75-1.02-1.29-1.87-1.29h-.51v5.2c0,1.11,.9,2,2,2,.86,0,1.59-.54,1.87-1.29,.29,.75,1.02,1.29,1.87,1.29s1.59-.54,1.87-1.29c.29,.75,1.02,1.29,1.87,1.29,1.01,0,1.84-.74,1.98-1.71-.13,.26-.39,.44-.7,.44Zm-7.49,0c-.43,0-.78-.35-.78-.78v-3.16c0-.18-.02-.36-.07-.53,.14-.13,.33-.21,.53-.21,.43,0,.78,.35,.78,.78v3.16c0,.18,.02,.36,.07,.53-.14,.13-.33,.21-.53,.21Zm3.72,0c-.45,0-.81-.35-.81-.78v-3.16c0-.18-.03-.36-.07-.53,.14-.13,.34-.21,.55-.21,.45,0,.81,.35,.81,.78v3.16c0,.18,.03,.36,.07,.53-.14,.13-.34,.21-.55,.21Z"></path><path class="cls-2" d="M12,21.25c-5.11,0-9.25-4.14-9.25-9.25,0-3.68,2.14-6.85,5.25-8.34"></path><path class="cls-2" d="M12,2.75c5.11,0,9.25,4.14,9.25,9.25,0,3.67-2.14,6.84-5.24,8.34"></path><rect class="cls-1" x="0" width="24" height="24"></rect><polyline class="cls-2" points="10.38 18.93 12 21.25 9.69 22.87"></polyline><polyline class="cls-2" points="13.62 5.07 12 2.75 14.31 1.13"></polyline></svg> 