<svg xmlns="http://www.w3.org/2000/svg" width="24" height="24" fill="none"><path fill="#002A80" fill-rule="evenodd" d="m8.857 9.188-1.04 4.477a1 1 0 0 0 .093.005h8.19a1 1 0 0 0 .092-.006l-1.04-4.478-.022-.006a.7.7 0 0 0-.17-.02H9.05a.6.6 0 0 0-.193.028m-.838-1.257a2 2 0 0 1 1.031-.27h5.91c.36 0 .726.084 1.028.264.27.162.584.469.627.928l1.145 4.931v.086c0 .518-.347.859-.629 1.03a2 2 0 0 1-1.031.27H7.91c-.36 0-.726-.085-1.028-.265-.29-.174-.632-.516-.632-1.035v-.086l1.145-4.932c.044-.457.362-.762.624-.92" clip-rule="evenodd"></path><path fill="#002A80" fill-rule="evenodd" d="m3.857 15.188-1.04 4.477a1 1 0 0 0 .093.005h8.19a1 1 0 0 0 .092-.006l-1.04-4.478-.022-.006a.7.7 0 0 0-.17-.02H4.05a.6.6 0 0 0-.193.028m-1.208 4.427v.001m.37-5.684a2 2 0 0 1 1.031-.27h5.91c.36 0 .726.084 1.028.264.27.162.584.469.627.928l1.145 4.931v.086c0 .518-.347.858-.629 1.03a2 2 0 0 1-1.031.27H2.91c-.36 0-.726-.085-1.028-.265-.29-.174-.632-.516-.632-1.035v-.086l1.145-4.932c.044-.457.362-.762.624-.92" clip-rule="evenodd"></path><path fill="#002A80" fill-rule="evenodd" d="m13.867 15.188-1.04 4.477a1 1 0 0 0 .093.005h8.18a1 1 0 0 0 .092-.006l-1.04-4.478-.022-.006a.7.7 0 0 0-.17-.02h-5.9a.6.6 0 0 0-.193.028m.183-1.528a2 2 0 0 0-1.022.271c-.26.159-.579.464-.623.921l-1.145 4.932v.086c0 .519.342.861.632 1.035.301.18.667.265 1.028.265h8.18c.366 0 .732-.09 1.031-.27.282-.171.629-.512.629-1.03v-.086l-1.145-4.931c-.043-.459-.358-.766-.628-.928a2 2 0 0 0-1.027-.265zm-1.392 5.955.002.001z" clip-rule="evenodd"></path><path fill="#FFBE00" fill-rule="evenodd" d="M20.53 3.298a.75.75 0 0 1 0 1.06l-2 2a.75.75 0 1 1-1.06-1.06l2-2a.75.75 0 0 1 1.06 0m-16.06 0a.75.75 0 0 1 1.06 0l2 2a.75.75 0 0 1-1.06 1.06l-2-2a.75.75 0 0 1 0-1.06M12 2.25a.75.75 0 0 1 .75.75v2.83a.75.75 0 0 1-1.5 0V3a.75.75 0 0 1 .75-.75" clip-rule="evenodd"></path></svg>