<svg width="24" height="24" viewBox="0 0 24 24" fill="none" xmlns="http://www.w3.org/2000/svg"><g clip-path="url(#clip0_10624_21225)"><path d="M18 7H6C4.34315 7 3 8.34315 3 10V18C3 19.6569 4.34315 21 6 21H18C19.6569 21 21 19.6569 21 18V10C21 8.34315 19.6569 7 18 7Z" stroke="#002A80" stroke-width="1.5" stroke-linecap="round" stroke-linejoin="round"></path><path d="M3 12H21" stroke="#002A80" stroke-width="1.5" stroke-linecap="round" stroke-linejoin="round"></path><path d="M6 17H9" stroke="#002A80" stroke-width="1.5" stroke-linecap="round" stroke-linejoin="round"></path><path d="M12 21.76V7" stroke="#FFBE00" stroke-width="1.5" stroke-linejoin="round"></path><path d="M12 7H16C17.1 7 18 6.1 18 5C18 3.9 17.1 3 16 3C13.79 3 12 4.79 12 7Z" stroke="#FFBE00" stroke-width="1.5" stroke-linecap="round" stroke-linejoin="round"></path><path d="M12 7H8C6.9 7 6 6.1 6 5C6 3.9 6.9 3 8 3C10.21 3 12 4.79 12 7Z" stroke="#FFBE00" stroke-width="1.5" stroke-linecap="round" stroke-linejoin="round"></path></g><defs><clipPath id="clip0_10624_21225"><rect width="24" height="24" fill="white"></rect></clipPath></defs></svg>