<svg xmlns="http://www.w3.org/2000/svg" width="24" height="24" fill="none"><g stroke-linecap="round" stroke-linejoin="round" stroke-width="1.5"><path stroke="#002A80" stroke-miterlimit="10" d="M12 5.559h10" style="stroke: color(display-p3 0 0.1667 0.5); stroke-opacity: 1;"></path><path stroke="#002A80" d="M14.22 2h5.56C21.56 2 22 2.44 22 4.2v4.11c0 1.76-.44 2.2-2.22 2.2h-5.56c-1.78 0-2.22-.44-2.22-2.2V4.2c0-1.76.44-2.2 2.22-2.2" style="stroke: color(display-p3 0 0.1667 0.5); stroke-opacity: 1;"></path><path stroke="#002A80" stroke-miterlimit="10" d="M2 17.059h10" style="stroke: color(display-p3 0 0.1667 0.5); stroke-opacity: 1;"></path><path stroke="#002A80" d="M4.22 13.5h5.56c1.78 0 2.22.44 2.22 2.2v4.11c0 1.76-.44 2.2-2.22 2.2H4.22c-1.78 0-2.22-.44-2.22-2.2V15.7c0-1.76.44-2.2 2.22-2.2" style="stroke: color(display-p3 0 0.1667 0.5); stroke-opacity: 1;"></path><g stroke="#FFBE00"><path d="M22 15c0 3.87-3.13 7-7 7l1.05-1.75M2 9c0-3.87 3.13-7 7-7L7.95 3.75" style="stroke: color(display-p3 1 0.7451 0); stroke-opacity: 1;"></path></g></g></svg>